<?xml version="1.0" encoding="utf-8"?>
<!-- Generator: Adobe Illustrator 18.1.0, SVG Export Plug-In . SVG Version: 6.00 Build 0)  -->
<svg version="1.1" id="Layer_1" xmlns="http://www.w3.org/2000/svg" xmlns:xlink="http://www.w3.org/1999/xlink" x="0px" y="0px"
	 viewBox="953.5 0 326.5 1280" enable-background="new 953.5 0 326.5 1280" xml:space="preserve">
<polygon display="none" fill="#FFFFFF" points="1580.3,1104.5 1573.7,1102.3 1736,656.1 1573.7,209.9 1580.3,207.4 1743.7,656.1 
	1743,657.2 "/>
<path d="M964.4,1270L964.4,1270c-8.6-3.3-13-12.9-9.9-21.6l220.7-605.6c1.4-3.7,1.4-7.8,0-11.6L954.5,25.7
	c-3.2-8.7,1.2-18.3,9.9-21.6l0,0c8.8-3.4,18.7,1.1,21.9,10l224.8,617.2c1.4,3.7,1.4,7.8,0,11.6L986.3,1260
	C983,1268.9,973.2,1273.4,964.4,1270z"/>
<polygon display="none" fill="#FFFFFF" points="1580.3,1095.6 1547.4,1083.7 1706,646.9 1547.4,210.4 1580.3,198.5 1743.7,646.9 "/>
</svg>
